<?xml version="1.0" encoding="UTF-8"?>
<svg id="Layer_1" data-name="Layer 1" xmlns="http://www.w3.org/2000/svg" viewBox="0 0 694.06 350.41">
  <defs>
    <style>
      .cls-1 {
        fill: #e5e5e5;
      }

      .cls-2 {
        fill: #fc6030;
      }
    </style>
  </defs>
  <g>
    <path class="cls-1" d="M273.219 316.895Q268.946 316.895 265.287 315.372Q261.629 313.850 258.932 311.100Q256.235 308.349 254.739 304.717Q253.244 301.085 253.244 296.920Q253.244 292.754 254.739 289.122Q256.235 285.490 258.932 282.739Q261.629 279.989 265.287 278.467Q268.946 276.945 273.219 276.945Q277.491 276.945 281.123 278.467Q284.755 279.989 287.479 282.739Q290.203 285.490 291.698 289.122Q293.194 292.754 293.194 296.920Q293.194 301.085 291.698 304.717Q290.203 308.349 287.479 311.100Q284.755 313.850 281.123 315.372Q277.491 316.895 273.219 316.895M273.219 310.058Q276.797 310.058 279.681 308.402Q282.565 306.747 284.274 303.783Q285.983 300.818 285.983 296.920Q285.983 292.967 284.274 290.030Q282.565 287.092 279.681 285.437Q276.797 283.781 273.219 283.781Q269.694 283.781 266.810 285.437Q263.925 287.092 262.216 290.030Q260.507 292.967 260.507 296.920Q260.507 300.818 262.216 303.783Q263.925 306.747 266.810 308.402Q269.694 310.058 273.219 310.058"/>
    <path class="cls-1" d="M307.133 316.040L299.923 316.040L299.923 277.799L324.171 277.799L324.171 284.635L307.133 284.635L307.133 316.040M322.462 300.765L303.929 300.765L303.929 293.929L322.462 293.929"/>
    <path class="cls-1" d="M337.630 316.040L330.420 316.040L330.420 277.799L354.667 277.799L354.667 284.635L337.630 284.635L337.630 316.040M352.958 300.765L334.425 300.765L334.425 293.929L352.958 293.929"/>
    <path class="cls-1" d="M368.127 316.040L360.916 316.040L360.916 277.799L368.127 277.799"/>
    <path class="cls-1" d="M394.885 316.895Q390.665 316.895 387.007 315.372Q383.348 313.850 380.624 311.126Q377.900 308.402 376.378 304.771Q374.856 301.139 374.856 296.920Q374.856 292.700 376.378 289.068Q377.900 285.437 380.624 282.713Q383.348 279.989 387.007 278.467Q390.665 276.945 394.885 276.945Q397.929 276.945 400.492 277.666Q403.056 278.387 405.219 279.775Q407.382 281.164 409.198 283.193L404.124 288.107Q403.003 286.772 401.641 285.810Q400.279 284.849 398.623 284.315Q396.967 283.781 394.938 283.781Q391.360 283.781 388.449 285.410Q385.538 287.039 383.829 289.976Q382.120 292.914 382.120 296.920Q382.120 300.872 383.829 303.836Q385.538 306.800 388.449 308.429Q391.360 310.058 394.938 310.058Q398.142 310.058 400.626 308.723Q403.110 307.388 405.032 305.038L410.160 309.898Q408.290 312.141 405.940 313.717Q403.590 315.292 400.813 316.093Q398.036 316.895 394.885 316.895"/>
    <path class="cls-1" d="M440.816 316.040L416.569 316.040L416.569 277.799L440.816 277.799L440.816 284.635L423.779 284.635L423.779 309.204L440.816 309.204L440.816 316.040M439.107 300.338L420.574 300.338L420.574 293.501L439.107 293.501"/>
  </g>
  <polygon class="cls-1" points="238.53 301.85 34.38 298.47 238.53 294.06 238.53 301.85"/>
  <polygon class="cls-1" points="455.67 301.85 659.68 298.47 455.67 294.06 455.67 301.85"/>
  <g>
    <path class="cls-2" d="M392.32,34.38v34.35h-17.77v178.85h-35V68.73h-12.57v-1.17c0-4.67-.43-9-1.3-12.81-.34-1.62-.78-3.18-1.32-4.69-.63-1.8-1.37-3.5-2.26-5.09v-10.59h70.21Z"/>
    <polygon class="cls-2" points="395.68 247.59 459.33 247.59 459.33 213.25 430.68 213.25 430.68 152.99 458.54 152.99 458.54 118.62 430.68 118.62 430.68 68.72 459.33 68.72 459.33 34.38 395.68 34.38 395.68 247.59"/>
    <path class="cls-2" d="M548.56,239.1c-4.09-6.17-6.19-14.4-6.19-24.57v-1.14l-14.59-60.6c3.82-2.72,7.04-6.08,9.63-10.05,3.9-5.92,5.83-13.24,5.83-21.86v-16.43c-.58-3.79-.87-7.7-.87-11.76v-24.63c0-2.22.09-4.35.31-6.39-1.21-7.52-4.37-13.53-9.49-18.09-6.69-5.92-16.2-8.89-28.52-8.89h-42.07v213.22h34.98v-85.01c.11-.02.38-.02.72-.02.65,0,1.55.02,1.77.02l14.99,85.01h35.63l-2.13-8.8ZM509.75,120.54c0,2.4-.33,4.29-.99,5.7-.63,1.39-1.66,2.54-3.05,3.39-1.3.79-4.55,1.21-6.62,1.28h-1.52v-61.88h6.96c1.97,0,3.32.49,4.08,1.46.74.96,1.14,2.74,1.14,5.34v44.7Z"/>
    <path class="cls-2" d="M624.8,192.81c0-11.23-2.22-21.27-6.64-30.13-4.44-8.86-10.75-18.8-18.96-29.82l-.65-.64c-6.04-8.42-10.53-15.34-13.45-20.74-2.91-5.39-4.37-10.9-4.37-16.52v-23.65c0-1.73.42-3.08,1.29-4.06.86-.97,1.95-1.46,3.24-1.46,1.51,0,2.64.49,3.4,1.46.76.98,1.13,2.33,1.13,4.06v35.65h35.01v-38.88c0-12.54-3.2-21.76-9.57-27.71-6.37-5.93-16.36-8.91-29.97-8.91s-23.6,2.98-29.97,8.91c-5.23,4.87-8.32,11.95-9.25,21.25-.2,2.04-.31,4.21-.31,6.46v24.62c0,4.03.29,7.91.87,11.64.99,6.46,2.87,12.47,5.61,18.02,4.33,8.75,10.48,18.41,18.48,29,.2.22.42.53.64.97v.33c6.26,8.21,10.92,15.12,13.94,20.74,3.02,5.61,4.53,11.34,4.53,17.16v21.07c0,1.51-.37,2.75-1.13,3.73-.76.97-1.89,1.46-3.4,1.46-1.29,0-2.38-.49-3.24-1.46-.87-.98-1.29-2.22-1.29-3.73v-33.7h-35.01v36.61c0,1.51.04,2.98.14,4.4.39,6.06,1.65,11.23,3.74,15.52.63,1.31,1.35,2.53,2.15,3.67,1.03,1.51,2.22,2.89,3.54,4.12,6.37,5.93,16.36,8.91,29.97,8.91s23.6-2.98,29.97-8.91c3.14-2.94,5.53-6.68,7.12-11.23.49-1.37.9-2.82,1.22-4.36.82-3.62,1.23-7.66,1.23-12.13v-21.71Z"/>
    <path class="cls-2" d="M627.25,213.28v1.24c0,6.38-.82,12-2.45,16.84v16.81h34.88v-34.88h-32.43Z"/>
    <path class="cls-2" d="M247.19,236.84l-.23-3.21-.34-4.24-2.07-27.46-1.23-16.11-.83-10.88-10.68-140.57h-54.43l-13.76,180.98-1.23,16.13-1.23,16v.11h35.65l.61-36.95h14.07l1.44,36.95h35.07l-.81-10.75ZM198.86,176.32l4.91-107.56h1.62l4.84,107.56h-11.37Z"/>
    <path class="cls-2" d="M156.83,34.28h-47.62l-13.61,135.45-13.6-135.45h-47.62v213.22h34.15l-8.64-178.79c.84-.04.48-.01,1.28-.1l21.15,178.88h26.57l21.15-178.88c.82.08.45.05,1.28.1l-8.85,178.79h29.54l4.83-.1V34.28Z"/>
    <path class="cls-2" d="M323.13,55.4c-.33-1.52-.73-2.95-1.22-4.33-1.58-4.55-3.96-8.29-7.1-11.23-6.37-5.95-16.36-8.91-29.97-8.91s-23.61,2.97-29.98,8.91c-6.37,5.95-9.55,15.18-9.55,27.71v24.62c0,11.01,2.15,20.91,6.48,29.66,4.33,8.74,10.48,18.41,18.47,28.99.22.22.44.54.65.98v.33c6.26,8.21,10.9,15.12,13.94,20.73,3.02,5.62,4.53,11.35,4.53,17.18v21.07c0,1.51-.38,2.75-1.13,3.73-.76.97-1.89,1.46-3.4,1.46-1.31,0-2.38-.49-3.25-1.46-.86-.98-1.29-2.22-1.29-3.73v-33.7h-34.41l4.46,58.69c1.25,2.12,2.76,4,4.51,5.63,6.37,5.93,16.37,8.91,29.98,8.91s23.6-2.98,29.97-8.91c6.37-5.95,9.55-15.18,9.55-27.71v-21.71c0-11.23-2.22-21.27-6.64-30.13-4.42-8.86-10.75-18.8-18.96-29.82l-.64-.64c-6.06-8.42-10.53-15.34-13.45-20.74-2.93-5.4-4.38-10.9-4.38-16.52v-23.65c0-1.73.44-3.08,1.29-4.06.87-.97,1.95-1.46,3.25-1.46,1.51,0,2.64.49,3.4,1.46.75.98,1.13,2.33,1.13,4.06v35.65h34.99v-38.89c0-4.46-.41-8.52-1.22-12.15Z"/>
  </g>
</svg>